<svg width="90" height="74" viewBox="0 0 90 74" fill="none" xmlns="http://www.w3.org/2000/svg">
<path d="M71.5005 73.4906C64.0125 73.4906 58.3485 70.4186 54.5085 64.2746C51.2445 59.0906 49.6125 52.7546 49.6125 45.2666C49.6125 35.6666 52.0125 27.0266 56.8125 19.3466C61.8045 11.6666 69.2925 5.52258 79.2765 0.914568L81.8685 6.09857C75.9165 8.59457 70.7325 12.5306 66.3165 17.9066C62.0925 23.2826 59.9805 28.7546 59.9805 34.3226C59.9805 36.6266 60.2685 38.6426 60.8445 40.3706C63.9165 37.8746 67.4685 36.6266 71.5005 36.6266C76.6845 36.6266 81.0045 38.3546 84.4605 41.8106C88.1085 45.0746 89.9325 49.4906 89.9325 55.0586C89.9325 60.2426 88.1085 64.6586 84.4605 68.3066C81.0045 71.7626 76.6845 73.4906 71.5005 73.4906ZM22.5405 73.4906C15.0525 73.4906 9.38849 70.4186 5.54849 64.2746C2.28449 59.0906 0.652486 52.7546 0.652486 45.2666C0.652486 35.6666 3.05249 27.0266 7.85249 19.3466C12.8445 11.6666 20.3325 5.52258 30.3165 0.914568L32.9085 6.09857C26.9565 8.59457 21.7725 12.5306 17.3565 17.9066C13.1325 23.2826 11.0205 28.7546 11.0205 34.3226C11.0205 36.6266 11.3085 38.6426 11.8845 40.3706C14.9565 37.8746 18.5085 36.6266 22.5405 36.6266C27.7245 36.6266 32.0445 38.3546 35.5005 41.8106C39.1485 45.0746 40.9725 49.4906 40.9725 55.0586C40.9725 60.2426 39.1485 64.6586 35.5005 68.3066C32.0445 71.7626 27.7245 73.4906 22.5405 73.4906Z" fill="#3045A1" fill-opacity="0.15"/>
</svg>
